<?xml version="1.0" encoding="UTF-8" standalone="no"?>
<!-- Created with Inkscape (http://www.inkscape.org/) -->

<svg
   xmlns:dc="http://purl.org/dc/elements/1.1/"
   xmlns:cc="http://creativecommons.org/ns#"
   xmlns:rdf="http://www.w3.org/1999/02/22-rdf-syntax-ns#"
   xmlns:svg="http://www.w3.org/2000/svg"
   xmlns="http://www.w3.org/2000/svg"
   xmlns:sodipodi="http://sodipodi.sourceforge.net/DTD/sodipodi-0.dtd"
   xmlns:inkscape="http://www.inkscape.org/namespaces/inkscape"
   width="765"
   height="990"
   id="svg8749"
   version="1.1"
   inkscape:version="0.47pre4 r22446"
   sodipodi:docname="New document 33">
  <defs
     id="defs8751">
    <inkscape:perspective
       sodipodi:type="inkscape:persp3d"
       inkscape:vp_x="0 : 526.18109 : 1"
       inkscape:vp_y="0 : 1000 : 0"
       inkscape:vp_z="744.09448 : 526.18109 : 1"
       inkscape:persp3d-origin="372.04724 : 350.78739 : 1"
       id="perspective8757" />
    <inkscape:perspective
       id="perspective17736"
       inkscape:persp3d-origin="0.5 : 0.33333333 : 1"
       inkscape:vp_z="1 : 0.5 : 1"
       inkscape:vp_y="0 : 1000 : 0"
       inkscape:vp_x="0 : 0.5 : 1"
       sodipodi:type="inkscape:persp3d" />
  </defs>
  <sodipodi:namedview
     id="base"
     pagecolor="#ffffff"
     bordercolor="#666666"
     borderopacity="1.0"
     inkscape:pageopacity="0.0"
     inkscape:pageshadow="2"
     inkscape:zoom="0.35"
     inkscape:cx="375"
     inkscape:cy="520"
     inkscape:document-units="in"
     inkscape:current-layer="layer1"
     showgrid="false"
     units="in"
     inkscape:window-width="928"
     inkscape:window-height="673"
     inkscape:window-x="109"
     inkscape:window-y="84"
     inkscape:window-maximized="0" />
  <metadata
     id="metadata8754">
    <rdf:RDF>
      <cc:Work
         rdf:about="">
        <dc:format>image/svg+xml</dc:format>
        <dc:type
           rdf:resource="http://purl.org/dc/dcmitype/StillImage" />
        <dc:title></dc:title>
      </cc:Work>
    </rdf:RDF>
  </metadata>
  <g
     inkscape:label="Layer 1"
     inkscape:groupmode="layer"
     id="layer1"
     transform="translate(0,-62.35975)">
    <path
       style="display:inline"
       d="M 223.59375,548.28125 C 201.60812,548.40958 202.87264,567.09765 208.46875,576.0625 214.24538,585.30226 223.49907,581.83863 242,577.21875 242.3739,577.12513 242.76525,577.05783 243.15625,576.96875 L 259.96875,658.65625 217.71875,717.46875 C 196.93292,704.75999 172.51575,697.41365 146.375,697.40625 70.700403,697.42767 9.3580309,758.79415 9.34375,834.46875 9.3580309,910.12907 70.707543,971.48572 146.375,971.5 209.82082,971.48204 263.18259,928.3447 278.78125,869.8125 L 300.03125,873.28125 C 301.99358,875.56749 304.48473,877.39533 307.3125,878.5625 L 300.875,912.40625 290.125,912.40625 290.125,925.75 323.4375,925.75 323.4375,912.40625 314.46875,912.40625 320.8125,879 C 328.43748,876.43409 333.9375,869.23993 333.9375,860.75 333.9375,860.06368 333.8825,859.38653 333.8125,858.71875 L 480.875,697.90625 488.40625,714.28125 C 446.00501,737.57814 417.26466,782.66307 417.25,834.46875 417.26428,910.12907 478.59951,971.48572 554.28125,971.5 629.97013,971.47858 691.33661,910.12907 691.34375,834.46875 691.33661,758.77273 629.97013,697.44464 554.28125,697.4375 536.76523,697.43915 520.0213,700.72857 504.625,706.71875 L 474.21875,640.59375 C 505.87368,636.34688 524.4802,635.81901 538.0625,634.6875 553.16981,633.42894 563.52419,630.57568 574.65625,621.15625 L 575.125,620.78125 575.53125,620.3125 C 575.53125,620.3125 577.16332,618.43773 579.375,616.3125 581.58668,614.18727 584.7669,611.96722 585,611.875 588.51473,610.48441 597.65409,609.62856 605.1875,609.71875 612.72091,609.80894 618.875,610.46875 618.875,610.46875 620.89576,610.67737 622.98609,610.06262 624.5625,608.78125 626.13891,607.49987 627.16638,605.55202 627.375,603.53125 627.58362,601.51049 626.96888,599.42016 625.6875,597.84375 624.40612,596.26733 622.48951,595.23987 620.46875,595.03125 620.46875,595.03125 613.68194,594.31821 605.375,594.21875 597.06806,594.11929 587.43637,594.25457 579.3125,597.46875 574.47026,599.38456 571.39448,602.46378 568.625,605.125 566.25885,607.39865 564.98916,608.88169 564.5,609.4375 555.46159,617.05212 550.89662,618.07408 536.78125,619.25 522.58283,620.43284 500.13528,620.99153 460.84375,626.8125 458.63684,627.13603 456.59531,628.45662 455.40625,630.34375 454.21718,632.23087 453.90179,634.65085 454.5625,636.78125 454.21621,638.62898 454.47177,640.58456 455.28125,642.28125 L 463.34375,659.78125 277.15625,653.96875 260.84375,574.53125 C 279.53739,573.05965 300.8919,573.62051 302.0625,573.75 305.56847,574.14273 312.46875,572.5825 312.46875,565.65625 312.46875,558.73 300.90625,556.4375 300.90625,556.4375 300.90625,556.4375 250.09721,549.48354 225.8125,548.3125 225.05427,548.27702 224.30296,548.27711 223.59375,548.28125 z M 280.78125,671.59375 471.625,677.78125 473.25,681.34375 328.46875,838.75 334.5,807.125 345.65625,807.125 345.65625,793.78125 312.34375,793.78125 312.34375,807.125 320.90625,807.125 315.03125,838.125 280.78125,671.59375 z M 264.875,682.53125 299.1875,849.34375 C 297.9991,850.95063 297.02084,852.72139 296.375,854.65625 L 282.25,852.34375 C 283.01438,846.49041 283.40511,840.53012 283.40625,834.46875 283.3981,791.29071 263.42664,752.77733 232.21875,727.65625 L 264.875,682.53125 z M 146.375,715.1875 C 168.63834,715.22371 189.46031,721.34624 207.28125,731.96875 L 148.09375,815.25 C 147.5281,815.20002 146.95363,815.1875 146.375,815.1875 135.7392,815.1875 127.125,823.8017 127.125,834.4375 127.125,845.0733 135.7392,853.71875 146.375,853.71875 150.61188,853.71875 154.50751,852.31872 157.6875,850 L 261.09375,866.9375 C 246.90723,916.9788 200.96803,953.62996 146.375,953.71875 80.539957,953.6045 27.232107,900.31807 27.125,834.46875 27.239247,768.59086 80.539957,715.29461 146.375,715.1875 z M 554.28125,715.21875 C 620.14485,715.32586 673.44825,768.598 673.5625,834.46875 673.44111,900.31093 620.13771,953.58308 554.28125,953.71875 488.43907,953.57594 435.16247,900.31093 435.0625,834.46875 435.13509,789.82885 459.63417,750.97405 495.90625,730.53125 L 538.59375,823.3125 C 536.35421,826.45961 535.03125,830.31191 535.03125,834.46875 535.03125,845.10455 543.64545,853.71875 554.28125,853.71875 564.91705,853.71875 573.53125,845.10455 573.53125,834.46875 573.53125,823.92634 565.06936,815.36833 554.5625,815.21875 L 512.09375,722.96875 C 525.20999,717.99146 539.41789,715.24293 554.28125,715.21875 z M 221.75,742.09375 C 248.492,763.95303 265.56037,797.20409 265.625,834.46875 265.61619,839.54909 265.27923,844.55678 264.65625,849.46875 L 165.59375,833.21875 C 165.37755,829.80507 164.26584,826.63892 162.5,823.9375 L 221.75,742.09375 z"
       id="path17690"
       transform="translate(24.65625,-227.52995)" />
  </g>
</svg>
