<?xml version="1.0" encoding="UTF-8" standalone="no"?>
<svg width="969px" height="68px" viewBox="0 0 969 68" version="1.1" xmlns="http://www.w3.org/2000/svg" xmlns:xlink="http://www.w3.org/1999/xlink" xmlns:sketch="http://www.bohemiancoding.com/sketch/ns">
    <!-- Generator: Sketch 3.2.2 (9983) - http://www.bohemiancoding.com/sketch -->
    <title>— Где покататься в С</title>
    <desc>Created with Sketch.</desc>
    <defs></defs>
    <g id="Page-1" stroke="none" stroke-width="1" fill="none" fill-rule="evenodd" sketch:type="MSPage">
        <path d="M46.528,31.28 L0,31.28 L0,33.584 L46.528,33.584 L46.528,31.28 Z M76.032,11.568 C80.768,8.88 84.778667,6.93866699 88.064,5.744 C91.349333,4.54933301 94.570667,3.952 97.728,3.952 C100.373333,3.952 104.234667,4.50666699 109.312,5.616 C106.965333,8.34666699 104.874667,11.056 103.04,13.744 C101.205333,16.432 99.114667,19.674667 96.768,23.472 C94.421333,27.269333 92.202667,30.704 90.112,33.776 C87.594667,37.402667 85.258667,40.112 83.104,41.904 C80.949333,43.696 78.314667,44.592 75.2,44.592 C74.048,44.592 73.034667,44.176 72.16,43.344 C71.285333,42.512 70.848,41.562667 70.848,40.496 C70.848,39.386667 71.157333,38.192 71.776,36.912 C72.394667,35.632 72.704,34.778667 72.704,34.352 C72.704,33.157333 72.234667,32.56 71.296,32.56 C69.504,32.56 67.786667,33.296 66.144,34.768 C64.501333,36.24 63.68,37.722667 63.68,39.216 C63.68,41.136 64.789333,42.821333 67.008,44.272 C69.226667,45.722667 71.594667,46.448 74.112,46.448 C78.208,46.448 82.336,45.264 86.496,42.896 C90.656,40.528 94.208,37.253333 97.152,33.072 C100.181333,28.762667 103.008,23.674667 105.632,17.808 C108.256,11.941333 110.250667,8.06933301 111.616,6.192 C120.192,8.15466699 125.866667,9.136 128.64,9.136 C132.565333,9.136 136.650667,8.25066699 140.896,6.48 C145.141333,4.70933301 148.288,2.94933301 150.336,1.2 L149.632,0.176 C149.034667,0.56 148.245333,0.997333008 147.264,1.488 C146.282667,1.97866699 144.512,2.55466699 141.952,3.216 C139.392,3.87733301 136.832,4.208 134.272,4.208 C132.010667,4.208 126.698667,3.70666699 118.336,2.704 C109.973333,1.70133301 105.109333,1.2 103.744,1.2 C98.112,1.2 93.248,1.88266699 89.152,3.248 C85.056,4.61333301 80.362667,6.96 75.072,10.288 L76.032,11.568 Z M113.984,46.448 C115.861333,46.448 118.144,45.616 120.832,43.952 C123.52,42.288 125.994667,40.389333 128.256,38.256 L128.64,38.576 C127.232,41.178667 125.312,44.485333 122.88,48.496 C119.509333,53.914667 116.661333,57.914667 114.336,60.496 C112.010667,63.077333 109.696,64.368 107.392,64.368 C105.898667,64.368 104.533333,63.76 103.296,62.544 C102.058667,61.328 101.44,59.930667 101.44,58.352 C101.44,55.706667 102.336,53.253333 104.128,50.992 L103.424,50.224 C101.333333,51.717333 99.498667,53.381333 97.92,55.216 C96.341333,57.050667 95.552,58.757333 95.552,60.336 C95.552,61.786667 96.650667,63.290667 98.848,64.848 C101.045333,66.405333 103.146667,67.184 105.152,67.184 C108.608,67.184 111.914667,65.84 115.072,63.152 C118.229333,60.464 121.6,56.666667 125.184,51.76 C126.549333,49.925333 127.936,47.866667 129.344,45.584 C130.752,43.301333 132.288,40.730667 133.952,37.872 C135.616,35.013333 136.832,32.944 137.6,31.664 C140.544,26.885333 142.016,24.176 142.016,23.536 C142.016,23.066667 141.482667,22.522667 140.416,21.904 C139.349333,21.285333 138.517333,20.976 137.92,20.976 C137.536,20.976 137.130667,21.402667 136.704,22.256 L136.384,22.96 C134.250667,21.338667 132.416,20.528 130.88,20.528 C128.618667,20.528 125.685333,21.872 122.08,24.56 C118.474667,27.248 115.349333,30.181333 112.704,33.36 C110.058667,36.538667 108.736,38.853333 108.736,40.304 C108.736,41.712 109.322667,43.088 110.496,44.432 C111.669333,45.776 112.832,46.448 113.984,46.448 L113.984,46.448 Z M132.992,29.872 C131.029333,33.029333 128.426667,35.813333 125.184,38.224 C121.941333,40.634667 119.488,41.84 117.824,41.84 C117.184,41.84 116.565333,41.52 115.968,40.88 C115.370667,40.24 115.072,39.493333 115.072,38.64 C115.072,37.786667 115.861333,36.112 117.44,33.616 C119.018667,31.12 120.906667,28.741333 123.104,26.48 C125.301333,24.218667 127.125333,23.088 128.576,23.088 C129.6,23.088 130.666667,23.557333 131.776,24.496 C132.885333,25.434667 133.674667,26.437333 134.144,27.504 C133.845333,28.186667 133.461333,28.976 132.992,29.872 L132.992,29.872 Z M141.504,38.896 C141.504,40.986667 142.56,42.768 144.672,44.24 C146.784,45.712 149.013333,46.448 151.36,46.448 C155.669333,46.448 160.053333,45.317333 164.512,43.056 C168.970667,40.794667 172.896,38.053333 176.288,34.832 C179.68,31.610667 182.88,28.090667 185.888,24.272 C188.896,20.453333 191.253333,17.136 192.96,14.32 C194.666667,11.504 195.904,9.2 196.672,7.408 L195.648,6.896 C194.752,8.56 193.504,10.618667 191.904,13.072 C190.304,15.525333 188.042667,18.597333 185.12,22.288 C182.197333,25.978667 179.189333,29.306667 176.096,32.272 C173.002667,35.237333 169.482667,37.808 165.536,39.984 C161.589333,42.16 157.824,43.248 154.24,43.248 C152.277333,43.248 150.698667,42.736 149.504,41.712 C148.309333,40.688 147.712,39.322667 147.712,37.616 C147.712,36.634667 148.288,35.141333 149.44,33.136 C150.464,33.221333 152.042667,33.264 154.176,33.264 C156.437333,33.264 158.72,32.944 161.024,32.304 C163.328,31.664 165.301333,30.736 166.944,29.52 C168.586667,28.304 169.408,26.949333 169.408,25.456 C169.408,24.389333 168.682667,23.301333 167.232,22.192 C165.781333,21.082667 164.266667,20.528 162.688,20.528 C160.853333,20.528 158.218667,21.68 154.784,23.984 C151.349333,26.288 148.277333,28.933333 145.568,31.92 C142.858667,34.906667 141.504,37.232 141.504,38.896 L141.504,38.896 Z M160.832,22.896 C161.429333,22.896 161.962667,23.173333 162.432,23.728 C162.901333,24.282667 163.136,24.858667 163.136,25.456 C163.136,27.034667 161.856,28.453333 159.296,29.712 C156.736,30.970667 153.728,31.664 150.272,31.792 C151.850667,29.488 153.664,27.429333 155.712,25.616 C157.76,23.802667 159.466667,22.896 160.832,22.896 L160.832,22.896 Z M246.72,26.288 C246.72,25.221333 246.122667,24.069333 244.928,22.832 C243.733333,21.594667 242.325333,20.976 240.704,20.976 C238.954667,20.976 236.650667,21.957333 233.792,23.92 C230.933333,25.882667 228.416,27.952 226.24,30.128 L225.856,29.808 C228.330667,26.608 229.568,24.666667 229.568,23.984 C229.568,23.344 229.226667,22.682667 228.544,22 C227.861333,21.317333 227.2,20.976 226.56,20.976 C226.133333,20.976 224.352,21.136 221.216,21.456 C218.08,21.776 216.277333,21.957333 215.808,22 L215.808,23.152 C218.837333,23.152 221.312,23.429333 223.232,23.984 L223.424,24.304 C223.424,25.712 221.802667,28.826667 218.56,33.648 C217.536,35.141333 216.405333,36.752 215.168,38.48 C213.930667,40.208 213.12,41.370667 212.736,41.968 C212.352,42.565333 212.16,42.992 212.16,43.248 C212.16,43.717333 212.618667,44.293333 213.536,44.976 C214.453333,45.658667 215.125333,46 215.552,46 C216.021333,46 216.362667,45.786667 216.576,45.36 L219.008,40.816 L218.944,40.944 C221.077333,37.36 224.234667,33.818667 228.416,30.32 C232.597333,26.821333 235.797333,25.072 238.016,25.072 C238.485333,25.072 238.922667,25.264 239.328,25.648 C239.733333,26.032 239.936,26.437333 239.936,26.864 C239.936,28.016 239.136,29.573333 237.536,31.536 C235.936,33.498667 234.336,35.386667 232.736,37.2 C231.136,39.013333 230.336,40.368 230.336,41.264 C230.336,42.330667 230.741333,43.386667 231.552,44.432 C232.362667,45.477333 233.258667,46 234.24,46 C237.909333,46 241.749333,44.773333 245.76,42.32 C249.770667,39.866667 252.821333,37.338667 254.912,34.736 L254.08,33.84 C252.032,35.930667 249.429333,37.904 246.272,39.76 C243.114667,41.616 240.384,42.544 238.08,42.544 C237.696,42.544 237.344,42.341333 237.024,41.936 C236.704,41.530667 236.544,41.093333 236.544,40.624 C236.544,39.770667 237.386667,38.405333 239.072,36.528 C240.757333,34.650667 242.453333,32.730667 244.16,30.768 C245.866667,28.805333 246.72,27.312 246.72,26.288 L246.72,26.288 Z M271.552,20.528 C269.461333,20.528 266.752,21.616 263.424,23.792 C260.096,25.968 257.141333,28.56 254.56,31.568 C251.978667,34.576 250.688,37.104 250.688,39.152 C250.688,40.858667 251.424,42.501333 252.896,44.08 C254.368,45.658667 256,46.448 257.792,46.448 C260.352,46.448 263.402667,45.413333 266.944,43.344 C270.485333,41.274667 273.557333,38.693333 276.16,35.6 C278.762667,32.506667 280.064,29.701333 280.064,27.184 C280.064,25.648 279.178667,24.154667 277.408,22.704 C275.637333,21.253333 273.685333,20.528 271.552,20.528 L271.552,20.528 Z M270.144,23.088 C271.210667,23.088 272.085333,23.610667 272.768,24.656 C273.450667,25.701333 273.792,26.821333 273.792,28.016 C273.792,30.832 272.16,34.149333 268.896,37.968 C265.632,41.786667 262.784,43.696 260.352,43.696 C259.413333,43.696 258.602667,43.130667 257.92,42 C257.237333,40.869333 256.896,39.664 256.896,38.384 C256.938667,36.08 258.432,32.954667 261.376,29.008 C264.32,25.061333 267.242667,23.088 270.144,23.088 L270.144,23.088 Z M275.584,23.152 C277.162667,23.152 280.352,23.248 285.152,23.44 C289.952,23.632 292.672,23.813333 293.312,23.984 L293.504,24.304 C293.504,25.712 291.882667,28.826667 288.64,33.648 C287.914667,34.672 287.157333,35.749333 286.368,36.88 C285.578667,38.010667 284.981333,38.874667 284.576,39.472 C284.170667,40.069333 283.776,40.656 283.392,41.232 C283.008,41.808 282.741333,42.245333 282.592,42.544 C282.442667,42.842667 282.368,43.077333 282.368,43.248 C282.368,43.717333 282.826667,44.293333 283.744,44.976 C284.661333,45.658667 285.333333,46 285.76,46 C286.229333,46 286.570667,45.786667 286.784,45.36 L289.792,40.112 C291.072,37.893333 292.885333,35.653333 295.232,33.392 C295.445333,34.032 295.616,34.949333 295.744,36.144 C295.872,37.338667 295.989333,38.458667 296.096,39.504 C296.202667,40.549333 296.384,41.594667 296.64,42.64 C296.896,43.685333 297.333333,44.506667 297.952,45.104 C298.570667,45.701333 299.370667,46 300.352,46 C304.021333,46 307.786667,44.912 311.648,42.736 C315.509333,40.56 318.442667,38.405333 320.448,36.272 L319.488,35.056 C317.866667,36.677333 315.456,38.330667 312.256,40.016 C309.056,41.701333 306.24,42.544 303.808,42.544 C303.04,42.544 302.282667,41.829333 301.536,40.4 C300.789333,38.970667 300.021333,37.317333 299.232,35.44 C298.442667,33.562667 297.728,32.304 297.088,31.664 C299.52,29.573333 301.877333,27.941333 304.16,26.768 C306.442667,25.594667 308.202667,25.008 309.44,25.008 C310.037333,25.008 310.336,25.328 310.336,25.968 C310.336,26.437333 310.229333,27.045333 310.016,27.792 C309.802667,28.538667 309.696,28.933333 309.696,28.976 C309.696,29.530667 310.037333,29.808 310.72,29.808 C312,29.808 313.482667,29.104 315.168,27.696 C316.853333,26.288 317.696,25.008 317.696,23.856 C317.696,23.045333 317.28,22.288 316.448,21.584 C315.616,20.88 314.709333,20.528 313.728,20.528 C310.186667,20.528 304.405333,23.770667 296.384,30.256 L296,29.936 C298.645333,26.693333 299.968,24.709333 299.968,23.984 C299.968,23.344 299.626667,22.682667 298.944,22 C298.261333,21.317333 297.6,20.976 296.96,20.976 C296.789333,20.976 295.498667,21.061333 293.088,21.232 C290.677333,21.402667 287.786667,21.573333 284.416,21.744 C281.045333,21.914667 278.101333,22 275.584,22 L275.584,23.152 Z M324.544,41.904 C323.861333,41.904 323.253333,41.584 322.72,40.944 C322.186667,40.304 321.92,39.578667 321.92,38.768 C321.92,37.658667 322.730667,35.845333 324.352,33.328 C325.973333,30.810667 327.946667,28.464 330.272,26.288 C332.597333,24.112 334.570667,23.024 336.192,23.024 C337.045333,23.024 338.005333,23.504 339.072,24.464 C340.138667,25.424 340.885333,26.458667 341.312,27.568 C338.581333,31.877333 335.498667,35.344 332.064,37.968 C328.629333,40.592 326.122667,41.904 324.544,41.904 L324.544,41.904 Z M349.12,23.152 C349.12,22.810667 348.682667,22.362667 347.808,21.808 C346.933333,21.253333 346.133333,20.976 345.408,20.976 C345.024,20.976 344.725333,21.210667 344.512,21.68 L343.744,23.152 C341.824,21.402667 340.074667,20.528 338.496,20.528 C336.234667,20.528 333.248,21.818667 329.536,24.4 C325.824,26.981333 322.581333,29.861333 319.808,33.04 C317.034667,36.218667 315.648,38.618667 315.648,40.24 C315.648,41.648 316.224,43.034667 317.376,44.4 C318.528,45.765333 319.68,46.448 320.832,46.448 C323.690667,46.448 328.021333,43.845333 333.824,38.64 L334.144,38.896 C333.162667,40.517333 332.672,41.648 332.672,42.288 C332.672,43.098667 333.130667,43.92 334.048,44.752 C334.965333,45.584 335.850667,46 336.704,46 C340.8,46 345.696,44.229333 351.392,40.688 C357.088,37.146667 361.024,33.904 363.2,30.96 L362.368,30.256 C360.32,32.986667 356.896,35.674667 352.096,38.32 C347.296,40.965333 343.445333,42.288 340.544,42.288 C340.16,42.288 339.797333,42.106667 339.456,41.744 C339.114667,41.381333 338.944,40.986667 338.944,40.56 C338.944,39.322667 340.586667,36.250667 343.872,31.344 C344.469333,30.448 345.269333,29.306667 346.272,27.92 C347.274667,26.533333 348,25.488 348.448,24.784 C348.896,24.08 349.12,23.536 349.12,23.152 L349.12,23.152 Z M356.864,23.152 C359.893333,23.152 362.368,23.429333 364.288,23.984 L364.48,24.304 C364.48,25.712 362.858667,28.826667 359.616,33.648 C358.592,35.141333 357.461333,36.752 356.224,38.48 C354.986667,40.208 354.176,41.370667 353.792,41.968 C353.408,42.565333 353.216,42.992 353.216,43.248 C353.216,43.717333 353.664,44.293333 354.56,44.976 C355.456,45.658667 356.117333,46 356.544,46 C357.013333,46 357.354667,45.786667 357.568,45.36 C358.293333,44.037333 359.125333,42.458667 360.064,40.624 L360.064,40.688 C362.24,37.061333 365.386667,33.552 369.504,30.16 C373.621333,26.768 376.853333,25.072 379.2,25.072 C379.584,25.072 379.968,25.264 380.352,25.648 C380.736,26.032 380.928,26.437333 380.928,26.864 C380.928,28.058667 380.085333,29.872 378.4,32.304 C376.714667,34.736 375.029333,37.050667 373.344,39.248 C371.658667,41.445333 370.816,42.885333 370.816,43.568 C370.816,43.952 371.264,44.453333 372.16,45.072 C373.056,45.690667 373.76,46 374.272,46 C374.826667,46 375.189333,45.829333 375.36,45.488 C375.872,44.293333 376.704,42.608 377.856,40.432 C379.818667,37.274667 382.826667,33.925333 386.88,30.384 C390.933333,26.842667 393.92,25.072 395.84,25.072 C396.309333,25.072 396.746667,25.274667 397.152,25.68 C397.557333,26.085333 397.76,26.501333 397.76,26.928 C397.76,28.08 396.96,29.605333 395.36,31.504 C393.76,33.402667 392.16,35.269333 390.56,37.104 C388.96,38.938667 388.16,40.325333 388.16,41.264 C388.16,42.330667 388.576,43.386667 389.408,44.432 C390.24,45.477333 391.146667,46 392.128,46 C395.797333,46 399.797333,44.773333 404.128,42.32 C408.458667,39.866667 411.690667,37.338667 413.824,34.736 L412.928,33.84 C411.178667,35.674667 408.501333,37.584 404.896,39.568 C401.290667,41.552 398.314667,42.544 395.968,42.544 C395.541333,42.544 395.168,42.341333 394.848,41.936 C394.528,41.530667 394.368,41.114667 394.368,40.688 C394.368,39.962667 394.901333,38.917333 395.968,37.552 C397.034667,36.186667 398.197333,34.874667 399.456,33.616 C400.714667,32.357333 401.877333,31.024 402.944,29.616 C404.010667,28.208 404.544,27.098667 404.544,26.288 C404.544,25.178667 403.957333,24.016 402.784,22.8 C401.610667,21.584 400.192,20.976 398.528,20.976 C395.84,20.976 391.253333,24.069333 384.768,30.256 L384.512,30.064 C386.048,27.802667 386.816,26.309333 386.816,25.584 C386.816,24.56 386.282667,23.536 385.216,22.512 C384.149333,21.488 382.933333,20.976 381.568,20.976 C380.032,20.976 377.792,21.957333 374.848,23.92 C371.904,25.882667 369.365333,27.952 367.232,30.128 L366.848,29.808 C369.322667,26.736 370.56,24.794667 370.56,23.984 C370.56,23.344 370.24,22.682667 369.6,22 C368.96,21.317333 368.32,20.976 367.68,20.976 C367.253333,20.976 365.450667,21.136 362.272,21.456 C359.093333,21.776 357.290667,21.957333 356.864,22 L356.864,23.152 Z M416.768,41.904 C416.085333,41.904 415.477333,41.584 414.944,40.944 C414.410667,40.304 414.144,39.578667 414.144,38.768 C414.144,37.658667 414.954667,35.845333 416.576,33.328 C418.197333,30.810667 420.170667,28.464 422.496,26.288 C424.821333,24.112 426.794667,23.024 428.416,23.024 C429.269333,23.024 430.229333,23.504 431.296,24.464 C432.362667,25.424 433.109333,26.458667 433.536,27.568 C430.805333,31.877333 427.722667,35.344 424.288,37.968 C420.853333,40.592 418.346667,41.904 416.768,41.904 L416.768,41.904 Z M441.344,23.152 C441.344,22.810667 440.906667,22.362667 440.032,21.808 C439.157333,21.253333 438.357333,20.976 437.632,20.976 C437.248,20.976 436.949333,21.210667 436.736,21.68 L435.968,23.152 C434.048,21.402667 432.298667,20.528 430.72,20.528 C428.458667,20.528 425.472,21.818667 421.76,24.4 C418.048,26.981333 414.805333,29.861333 412.032,33.04 C409.258667,36.218667 407.872,38.618667 407.872,40.24 C407.872,41.648 408.448,43.034667 409.6,44.4 C410.752,45.765333 411.904,46.448 413.056,46.448 C415.914667,46.448 420.245333,43.845333 426.048,38.64 L426.368,38.896 C425.386667,40.517333 424.896,41.648 424.896,42.288 C424.896,43.098667 425.354667,43.92 426.272,44.752 C427.189333,45.584 428.074667,46 428.928,46 C433.024,46 437.92,44.229333 443.616,40.688 C449.312,37.146667 453.248,33.904 455.424,30.96 L454.592,30.256 C452.544,32.986667 449.12,35.674667 444.32,38.32 C439.52,40.965333 435.669333,42.288 432.768,42.288 C432.384,42.288 432.021333,42.106667 431.68,41.744 C431.338667,41.381333 431.168,40.986667 431.168,40.56 C431.168,39.322667 432.810667,36.250667 436.096,31.344 C436.693333,30.448 437.493333,29.306667 438.496,27.92 C439.498667,26.533333 440.224,25.488 440.672,24.784 C441.12,24.08 441.344,23.536 441.344,23.152 L441.344,23.152 Z M449.088,23.152 C452.117333,23.152 454.592,23.429333 456.512,23.984 L456.704,24.304 C456.704,25.712 455.082667,28.826667 451.84,33.648 C450.816,35.141333 449.685333,36.752 448.448,38.48 C447.210667,40.208 446.4,41.370667 446.016,41.968 C445.632,42.565333 445.44,42.992 445.44,43.248 C445.44,43.717333 445.888,44.293333 446.784,44.976 C447.68,45.658667 448.341333,46 448.768,46 C449.237333,46 449.578667,45.786667 449.792,45.36 C450.517333,44.037333 451.349333,42.458667 452.288,40.624 L452.288,40.688 C454.464,37.061333 457.610667,33.552 461.728,30.16 C465.845333,26.768 469.077333,25.072 471.424,25.072 C471.808,25.072 472.192,25.264 472.576,25.648 C472.96,26.032 473.152,26.437333 473.152,26.864 C473.152,28.058667 472.309333,29.872 470.624,32.304 C468.938667,34.736 467.253333,37.050667 465.568,39.248 C463.882667,41.445333 463.04,42.885333 463.04,43.568 C463.04,43.952 463.488,44.453333 464.384,45.072 C465.28,45.690667 465.984,46 466.496,46 C467.050667,46 467.413333,45.829333 467.584,45.488 C468.096,44.293333 468.928,42.608 470.08,40.432 C472.042667,37.274667 475.050667,33.925333 479.104,30.384 C483.157333,26.842667 486.144,25.072 488.064,25.072 C488.533333,25.072 488.970667,25.274667 489.376,25.68 C489.781333,26.085333 489.984,26.501333 489.984,26.928 C489.984,28.08 489.184,29.605333 487.584,31.504 C485.984,33.402667 484.384,35.269333 482.784,37.104 C481.184,38.938667 480.384,40.325333 480.384,41.264 C480.384,42.330667 480.8,43.386667 481.632,44.432 C482.464,45.477333 483.370667,46 484.352,46 C488.96,46 494.218667,44.250667 500.128,40.752 C506.037333,37.253333 510.357333,33.776 513.088,30.32 L512.256,29.424 C510.037333,32.069333 506.410667,34.917333 501.376,37.968 C496.341333,41.018667 491.946667,42.544 488.192,42.544 C487.765333,42.544 487.392,42.341333 487.072,41.936 C486.752,41.530667 486.592,41.114667 486.592,40.688 C486.592,39.962667 487.125333,38.917333 488.192,37.552 C489.258667,36.186667 490.421333,34.874667 491.68,33.616 C492.938667,32.357333 494.101333,31.024 495.168,29.616 C496.234667,28.208 496.768,27.098667 496.768,26.288 C496.768,25.178667 496.181333,24.016 495.008,22.8 C493.834667,21.584 492.416,20.976 490.752,20.976 C488.064,20.976 483.477333,24.069333 476.992,30.256 L476.736,30.064 C478.272,27.802667 479.04,26.309333 479.04,25.584 C479.04,24.56 478.506667,23.536 477.44,22.512 C476.373333,21.488 475.157333,20.976 473.792,20.976 C472.256,20.976 470.016,21.957333 467.072,23.92 C464.128,25.882667 461.589333,27.952 459.456,30.128 L459.072,29.808 C461.546667,26.736 462.784,24.794667 462.784,23.984 C462.784,23.344 462.464,22.682667 461.824,22 C461.184,21.317333 460.544,20.976 459.904,20.976 C459.477333,20.976 457.674667,21.136 454.496,21.456 C451.317333,21.776 449.514667,21.957333 449.088,22 L449.088,23.152 Z M504.832,23.152 C507.861333,23.152 510.442667,23.429333 512.576,23.984 L512.768,24.304 C512.768,25.413333 511.946667,27.024 510.304,29.136 C508.661333,31.248 507.008,33.36 505.344,35.472 C503.68,37.584 502.848,39.173333 502.848,40.24 C502.848,41.776 503.370667,43.12 504.416,44.272 C505.461333,45.424 506.645333,46 507.968,46 C510.101333,46 512.650667,45.306667 515.616,43.92 C518.581333,42.533333 521.130667,40.890667 523.264,38.992 C525.397333,37.093333 526.464,35.461333 526.464,34.096 C526.464,32.901333 526.037333,31.856 525.184,30.96 C524.330667,30.064 523.349333,29.616 522.24,29.616 C520.96,29.616 519.466667,29.882667 517.76,30.416 C516.053333,30.949333 514.709333,31.514667 513.728,32.112 L513.344,31.728 C513.941333,30.96 514.805333,29.957333 515.936,28.72 C517.066667,27.482667 517.866667,26.533333 518.336,25.872 C518.805333,25.210667 519.04,24.624 519.04,24.112 C519.04,23.514667 518.698667,22.842667 518.016,22.096 C517.333333,21.349333 516.650667,20.976 515.968,20.976 C515.370667,20.976 514.549333,21.029333 513.504,21.136 C512.458667,21.242667 511.082667,21.381333 509.376,21.552 C507.669333,21.722667 506.154667,21.872 504.832,22 L504.832,23.152 Z M518.4,32.56 C518.997333,32.56 519.509333,32.805333 519.936,33.296 C520.362667,33.786667 520.576,34.352 520.576,34.992 C520.576,36.613333 519.253333,38.458667 516.608,40.528 C513.962667,42.597333 511.68,43.632 509.76,43.632 C509.290667,43.632 508.874667,43.386667 508.512,42.896 C508.149333,42.405333 507.968,41.861333 507.968,41.264 C507.968,40.026667 508.565333,38.469333 509.76,36.592 C510.826667,35.44 512.277333,34.48 514.112,33.712 C515.946667,32.944 517.376,32.56 518.4,32.56 L518.4,32.56 Z M549.504,20.528 C547.370667,20.528 544.608,21.648 541.216,23.888 C537.824,26.128 534.837333,28.741333 532.256,31.728 C529.674667,34.714667 528.384,37.146667 528.384,39.024 C528.384,40.944 529.184,42.661333 530.784,44.176 C532.384,45.690667 534.101333,46.448 535.936,46.448 C538.709333,46.448 541.930667,45.605333 545.6,43.92 C549.269333,42.234667 552,40.730667 553.792,39.408 L553.216,38.448 C552.362667,39.088 550.304,39.984 547.04,41.136 C543.776,42.288 541.098667,42.864 539.008,42.864 C537.941333,42.864 536.970667,42.352 536.096,41.328 C535.221333,40.304 534.784,39.152 534.784,37.872 C534.784,35.397333 536.362667,32.304 539.52,28.592 C542.677333,24.88 545.301333,23.024 547.392,23.024 C548.202667,23.024 548.778667,23.344 549.12,23.984 C549.461333,24.624 549.642667,25.328 549.664,26.096 C549.685333,26.864 549.770667,27.568 549.92,28.208 C550.069333,28.848 550.357333,29.168 550.784,29.168 C551.68,29.168 552.757333,28.613333 554.016,27.504 C555.274667,26.394667 555.904,25.413333 555.904,24.56 C555.904,23.408 555.264,22.448 553.984,21.68 C552.704,20.912 551.210667,20.528 549.504,20.528 L549.504,20.528 Z M557.888,42.8 C557.333333,42.8 556.885333,42.512 556.544,41.936 C556.202667,41.36 555.978667,40.72 555.872,40.016 C555.765333,39.312 555.616,38.672 555.424,38.096 C555.232,37.52 554.986667,37.232 554.688,37.232 C553.749333,37.232 552.672,37.850667 551.456,39.088 C550.24,40.325333 549.632,41.328 549.632,42.096 C549.632,43.205333 550.186667,44.208 551.296,45.104 C552.405333,46 553.578667,46.448 554.816,46.448 C558.656,46.448 564.096,42.693333 571.136,35.184 C572.672,35.098667 574.058667,34.949333 575.296,34.736 C573.162667,37.765333 572.096,39.941333 572.096,41.264 C572.096,42.330667 572.693333,43.386667 573.888,44.432 C575.082667,45.477333 576.213333,46 577.28,46 C580.565333,46 584.106667,45.008 587.904,43.024 C591.701333,41.04 595.253333,38.533333 598.56,35.504 C601.866667,32.474667 605.013333,29.178667 608,25.616 C610.986667,22.053333 613.493333,18.682667 615.52,15.504 C617.546667,12.325333 618.986667,9.62666699 619.84,7.408 L618.816,6.832 C617.834667,8.83733301 616.405333,11.258667 614.528,14.096 C612.650667,16.933333 610.325333,20.026667 607.552,23.376 C604.778667,26.725333 601.898667,29.808 598.912,32.624 C595.925333,35.44 592.725333,37.786667 589.312,39.664 C585.898667,41.541333 582.741333,42.48 579.84,42.48 C579.370667,42.48 578.954667,42.277333 578.592,41.872 C578.229333,41.466667 578.048,41.008 578.048,40.496 C578.048,39.813333 578.250667,39.024 578.656,38.128 C579.061333,37.232 579.498667,36.410667 579.968,35.664 C580.437333,34.917333 581.184,33.818667 582.208,32.368 C582.549333,31.856 583.328,30.8 584.544,29.2 C585.76,27.6 586.645333,26.362667 587.2,25.488 C587.754667,24.613333 588.032,23.941333 588.032,23.472 C588.032,23.002667 587.605333,22.469333 586.752,21.872 C585.898667,21.274667 585.194667,20.976 584.64,20.976 L575.744,20.976 C572.458667,20.976 569.525333,21.861333 566.944,23.632 C564.362667,25.402667 563.072,27.525333 563.072,30 C563.072,31.237333 563.605333,32.314667 564.672,33.232 C565.738667,34.149333 566.954667,34.757333 568.32,35.056 C563.242667,40.218667 559.765333,42.8 557.888,42.8 L557.888,42.8 Z M581.888,23.792 C581.888,24.688 580.202667,27.632 576.832,32.624 C576.192,32.794667 575.210667,32.88 573.888,32.88 C572.778667,32.88 571.765333,32.528 570.848,31.824 C569.930667,31.12 569.472,30.234667 569.472,29.168 C569.472,27.504 570.154667,26.074667 571.52,24.88 C572.885333,23.685333 574.613333,23.088 576.704,23.088 C580.16,23.088 581.888,23.322667 581.888,23.792 L581.888,23.792 Z M654.4,32.176 C657.173333,31.578667 659.381333,30.650667 661.024,29.392 C662.666667,28.133333 663.488,26.693333 663.488,25.072 C663.488,24.005333 662.794667,22.981333 661.408,22 C660.021333,21.018667 658.602667,20.528 657.152,20.528 C654.250667,20.528 651.008,21.605333 647.424,23.76 C643.84,25.914667 640.842667,28.442667 638.432,31.344 C636.021333,34.245333 634.816,36.762667 634.816,38.896 C634.816,40.858667 635.562667,42.608 637.056,44.144 C638.549333,45.68 640.213333,46.448 642.048,46.448 C645.888,46.448 649.546667,45.445333 653.024,43.44 C656.501333,41.434667 658.24,39.194667 658.24,36.72 C658.24,35.952 657.845333,35.184 657.056,34.416 C656.266667,33.648 655.381333,33.050667 654.4,32.624 L654.336,32.624 L654.4,32.176 Z M644.032,44.144 C643.093333,44.144 642.304,43.632 641.664,42.608 C641.024,41.584 640.704,40.346667 640.704,38.896 C640.704,37.488 641.216,35.824 642.24,33.904 C642.624,33.861333 644.928,33.733333 649.152,33.52 C650.048,33.733333 650.805333,34.256 651.424,35.088 C652.042667,35.92 652.352,36.698667 652.352,37.424 C652.352,38.874667 651.392,40.357333 649.472,41.872 C647.552,43.386667 645.738667,44.144 644.032,44.144 L644.032,44.144 Z M654.592,23.024 C655.274667,23.024 655.904,23.290667 656.48,23.824 C657.056,24.357333 657.344,24.901333 657.344,25.456 C657.344,27.12 655.872,28.581333 652.928,29.84 C649.984,31.098667 646.784,31.834667 643.328,32.048 C644.864,29.616 646.709333,27.504 648.864,25.712 C651.018667,23.92 652.928,23.024 654.592,23.024 L654.592,23.024 Z M718.272,0.752 C715.498667,0.752 712.010667,2.10666699 707.808,4.816 C703.605333,7.52533301 699.669333,10.714667 696,14.384 C692.330667,18.053333 689.173333,21.829333 686.528,25.712 C683.882667,29.594667 682.56,32.624 682.56,34.8 C682.56,37.744 683.658667,40.421333 685.856,42.832 C688.053333,45.242667 690.624,46.448 693.568,46.448 C696.512,46.448 699.882667,45.68 703.68,44.144 C707.477333,42.608 710.965333,40.805333 714.144,38.736 C717.322667,36.666667 720.106667,34.650667 722.496,32.688 C724.885333,30.725333 726.442667,29.210667 727.168,28.144 L726.272,27.248 C723.456,30.405333 718.976,33.658667 712.832,37.008 C706.688,40.357333 701.162667,42.032 696.256,42.032 C694.805333,42.032 693.322667,41.338667 691.808,39.952 C690.293333,38.565333 689.536,36.933333 689.536,35.056 C689.536,31.856 691.232,27.642667 694.624,22.416 C698.016,17.189333 701.856,12.613333 706.144,8.688 C710.432,4.76266699 713.770667,2.8 716.16,2.8 C717.696,2.8 718.794667,3.28 719.456,4.24 C720.117333,5.2 720.448,6.29866699 720.448,7.536 C720.448,8.048 720.394667,8.82666699 720.288,9.872 C720.181333,10.917333 720.128,11.696 720.128,12.208 C720.128,12.805333 720.234667,13.221333 720.448,13.456 C720.661333,13.690667 721.045333,13.808 721.6,13.808 C722.922667,13.808 724.362667,13.253333 725.92,12.144 C727.477333,11.034667 728.256,9.84 728.256,8.56 C728.256,6.59733301 727.157333,4.80533301 724.96,3.184 C722.762667,1.56266699 720.533333,0.752 718.272,0.752 L718.272,0.752 Z M719.168,23.152 C721.685333,23.152 724.16,23.429333 726.592,23.984 L726.784,24.304 C726.784,25.456 726.272,26.874667 725.248,28.56 C724.224,30.245333 723.082667,31.792 721.824,33.2 C720.565333,34.608 719.424,36.069333 718.4,37.584 C717.376,39.098667 716.864,40.282667 716.864,41.136 C716.864,42.330667 717.386667,43.44 718.432,44.464 C719.477333,45.488 720.490667,46 721.472,46 C724.885333,46 730.304,42.586667 737.728,35.76 L738.112,36.08 C737.301333,37.445333 735.978667,39.76 734.144,43.024 C732.309333,46.288 730.816,48.837333 729.664,50.672 C726.464,55.664 723.669333,59.194667 721.28,61.264 C718.890667,63.333333 716.565333,64.368 714.304,64.368 C712.725333,64.368 711.285333,63.728 709.984,62.448 C708.682667,61.168 708.032,59.866667 708.032,58.544 C708.032,55.429333 708.928,52.933333 710.72,51.056 L710.016,50.288 C704.768,54.128 702.144,57.498667 702.144,60.4 C702.144,61.722667 703.274667,63.184 705.536,64.784 C707.797333,66.384 710.122667,67.184 712.512,67.184 C719.594667,67.184 727.488,60.464 736.192,47.024 C736.789333,46.085333 737.941333,44.325333 739.648,41.744 C741.354667,39.162667 742.677333,37.136 743.616,35.664 C744.554667,34.192 745.621333,32.485333 746.816,30.544 C748.010667,28.602667 748.896,27.066667 749.472,25.936 C750.048,24.805333 750.336,24.005333 750.336,23.536 C750.336,23.066667 749.834667,22.522667 748.832,21.904 C747.829333,21.285333 746.986667,20.976 746.304,20.976 C746.090667,20.976 745.909333,21.04 745.76,21.168 C745.610667,21.296 745.504,21.424 745.44,21.552 C745.376,21.68 745.290667,21.872 745.184,22.128 C745.077333,22.384 745.002667,22.554667 744.96,22.64 C743.424,26.352 740.16,30.554667 735.168,35.248 C730.176,39.941333 726.613333,42.288 724.48,42.288 C724.138667,42.288 723.797333,42.085333 723.456,41.68 C723.114667,41.274667 722.944,40.88 722.944,40.496 C722.944,39.386667 723.808,37.744 725.536,35.568 C727.264,33.392 729.002667,31.205333 730.752,29.008 C732.501333,26.810667 733.376,25.157333 733.376,24.048 C733.376,23.493333 733.024,22.842667 732.32,22.096 C731.616,21.349333 730.965333,20.976 730.368,20.976 C729.856,20.976 729.109333,21.018667 728.128,21.104 C727.146667,21.189333 725.770667,21.328 724,21.52 C722.229333,21.712 720.618667,21.872 719.168,22 L719.168,23.152 Z M778.496,20.528 C778.026667,20.528 777.525333,20.624 776.992,20.816 C776.458667,21.008 775.861333,21.306667 775.2,21.712 C774.538667,22.117333 773.930667,22.501333 773.376,22.864 C772.821333,23.226667 772.149333,23.738667 771.36,24.4 C770.570667,25.061333 769.941333,25.594667 769.472,26 C769.002667,26.405333 768.352,26.981333 767.52,27.728 C766.688,28.474667 766.101333,28.997333 765.76,29.296 L765.312,28.912 C767.36,26.010667 768.384,24.368 768.384,23.984 C768.384,23.344 768.042667,22.682667 767.36,22 C766.677333,21.317333 765.994667,20.976 765.312,20.976 C764.970667,20.976 763.242667,21.136 760.128,21.456 C757.013333,21.776 755.136,21.957333 754.496,22 L754.496,23.152 C757.610667,23.152 760.085333,23.429333 761.92,23.984 L762.112,24.304 C762.112,24.602667 761.994667,25.050667 761.76,25.648 C761.525333,26.245333 761.162667,27.034667 760.672,28.016 C760.181333,28.997333 759.712,29.914667 759.264,30.768 C758.816,31.621333 758.197333,32.752 757.408,34.16 C756.618667,35.568 756,36.666667 755.552,37.456 C755.104,38.245333 754.432,39.408 753.536,40.944 C752.64,42.48 752.064,43.461333 751.808,43.888 C749.333333,48.154667 746.997333,52.026667 744.8,55.504 C742.602667,58.981333 741.12,61.306667 740.352,62.48 C739.584,63.653333 739.2,64.368 739.2,64.624 C739.2,65.136 739.626667,65.690667 740.48,66.288 C741.333333,66.885333 742.037333,67.184 742.592,67.184 C743.189333,67.184 743.594667,66.992 743.808,66.608 C751.018667,53.04 754.709333,46.085333 754.88,45.744 C754.922667,45.658667 755.050667,45.424 755.264,45.04 C755.477333,44.656 755.648,44.336 755.776,44.08 C757.909333,45.658667 760.448,46.448 763.392,46.448 C765.568,46.448 768.352,45.338667 771.744,43.12 C775.136,40.901333 778.144,38.149333 780.768,34.864 C783.392,31.578667 784.704,28.613333 784.704,25.968 C784.704,24.730667 784.074667,23.514667 782.816,22.32 C781.557333,21.125333 780.117333,20.528 778.496,20.528 L778.496,20.528 Z M759.36,38.064 C761.877333,34.949333 764.821333,32.058667 768.192,29.392 C771.562667,26.725333 774.101333,25.392 775.808,25.392 C776.448,25.392 777.034667,25.669333 777.568,26.224 C778.101333,26.778667 778.368,27.354667 778.368,27.952 C778.368,29.658667 777.557333,31.856 775.936,34.544 C774.314667,37.232 772.362667,39.610667 770.08,41.68 C767.797333,43.749333 765.824,44.784 764.16,44.784 C763.050667,44.784 761.898667,44.282667 760.704,43.28 C759.509333,42.277333 758.656,41.2 758.144,40.048 L759.36,38.064 Z M802.56,25.776 C802.56,26.202667 802.368,26.661333 801.984,27.152 C801.6,27.642667 800.906667,28.261333 799.904,29.008 C798.901333,29.754667 798.165333,30.288 797.696,30.608 C797.226667,30.928 796.266667,31.557333 794.816,32.496 C794.346667,32.794667 793.738667,33.178667 792.992,33.648 C792.245333,34.117333 791.68,34.48 791.296,34.736 C790.912,34.992 790.453333,35.301333 789.92,35.664 C789.386667,36.026667 788.970667,36.314667 788.672,36.528 C788.373333,36.741333 788.042667,36.997333 787.68,37.296 C787.317333,37.594667 787.050667,37.84 786.88,38.032 C786.709333,38.224 786.528,38.448 786.336,38.704 C786.144,38.96 786.016,39.205333 785.952,39.44 C785.888,39.674667 785.856,39.92 785.856,40.176 C785.856,41.754667 786.442667,43.12 787.616,44.272 C788.789333,45.424 790.186667,46 791.808,46 C796.842667,46 802.389333,44.218667 808.448,40.656 C814.506667,37.093333 819.157333,33.456 822.4,29.744 L821.504,28.976 C818.090667,32.602667 813.834667,35.824 808.736,38.64 C803.637333,41.456 798.677333,42.864 793.856,42.864 C793.258667,42.864 792.736,42.650667 792.288,42.224 C791.84,41.797333 791.616,41.264 791.616,40.624 C791.616,40.069333 792.085333,39.376 793.024,38.544 C793.962667,37.712 795.626667,36.485333 798.016,34.864 C798.912,34.266667 800.394667,33.370667 802.464,32.176 C804.533333,30.981333 805.984,30 806.816,29.232 C807.648,28.464 808.064,27.610667 808.064,26.672 C808.064,25.477333 807.498667,24.229333 806.368,22.928 C805.237333,21.626667 803.989333,20.976 802.624,20.976 C800.789333,20.976 798.784,21.434667 796.608,22.352 C794.432,23.269333 792.597333,24.346667 791.104,25.584 L791.744,26.608 C795.2,24.688 798.122667,23.728 800.512,23.728 C801.066667,23.728 801.546667,23.952 801.952,24.4 C802.357333,24.848 802.56,25.306667 802.56,25.776 L802.56,25.776 Z M814.976,23.152 C817.493333,23.152 819.968,23.429333 822.4,23.984 L822.592,24.304 C822.592,25.456 822.08,26.874667 821.056,28.56 C820.032,30.245333 818.890667,31.792 817.632,33.2 C816.373333,34.608 815.232,36.069333 814.208,37.584 C813.184,39.098667 812.672,40.282667 812.672,41.136 C812.672,42.330667 813.194667,43.44 814.24,44.464 C815.285333,45.488 816.298667,46 817.28,46 C820.693333,46 826.112,42.586667 833.536,35.76 L833.92,36.08 C833.109333,37.445333 831.786667,39.76 829.952,43.024 C828.117333,46.288 826.624,48.837333 825.472,50.672 C822.272,55.664 819.477333,59.194667 817.088,61.264 C814.698667,63.333333 812.373333,64.368 810.112,64.368 C808.533333,64.368 807.093333,63.728 805.792,62.448 C804.490667,61.168 803.84,59.866667 803.84,58.544 C803.84,55.429333 804.736,52.933333 806.528,51.056 L805.824,50.288 C800.576,54.128 797.952,57.498667 797.952,60.4 C797.952,61.722667 799.082667,63.184 801.344,64.784 C803.605333,66.384 805.930667,67.184 808.32,67.184 C815.402667,67.184 823.296,60.464 832,47.024 C832.597333,46.085333 833.749333,44.325333 835.456,41.744 C837.162667,39.162667 838.485333,37.136 839.424,35.664 C840.362667,34.192 841.429333,32.485333 842.624,30.544 C843.818667,28.602667 844.704,27.066667 845.28,25.936 C845.856,24.805333 846.144,24.005333 846.144,23.536 C846.144,23.066667 845.642667,22.522667 844.64,21.904 C843.637333,21.285333 842.794667,20.976 842.112,20.976 C841.898667,20.976 841.717333,21.04 841.568,21.168 C841.418667,21.296 841.312,21.424 841.248,21.552 C841.184,21.68 841.098667,21.872 840.992,22.128 C840.885333,22.384 840.810667,22.554667 840.768,22.64 C839.232,26.352 835.968,30.554667 830.976,35.248 C825.984,39.941333 822.421333,42.288 820.288,42.288 C819.946667,42.288 819.605333,42.085333 819.264,41.68 C818.922667,41.274667 818.752,40.88 818.752,40.496 C818.752,39.386667 819.616,37.744 821.344,35.568 C823.072,33.392 824.810667,31.205333 826.56,29.008 C828.309333,26.810667 829.184,25.157333 829.184,24.048 C829.184,23.493333 828.832,22.842667 828.128,22.096 C827.424,21.349333 826.773333,20.976 826.176,20.976 C825.664,20.976 824.917333,21.018667 823.936,21.104 C822.954667,21.189333 821.578667,21.328 819.808,21.52 C818.037333,21.712 816.426667,21.872 814.976,22 L814.976,23.152 Z M850.688,23.152 C853.717333,23.152 856.192,23.429333 858.112,23.984 L858.304,24.304 C858.304,25.712 856.682667,28.826667 853.44,33.648 C852.416,35.141333 851.285333,36.752 850.048,38.48 C848.810667,40.208 848,41.370667 847.616,41.968 C847.232,42.565333 847.04,42.992 847.04,43.248 C847.04,43.717333 847.488,44.293333 848.384,44.976 C849.28,45.658667 849.941333,46 850.368,46 C850.837333,46 851.178667,45.786667 851.392,45.36 C852.117333,44.037333 852.949333,42.458667 853.888,40.624 L853.888,40.688 C856.064,37.061333 859.210667,33.552 863.328,30.16 C867.445333,26.768 870.677333,25.072 873.024,25.072 C873.408,25.072 873.792,25.264 874.176,25.648 C874.56,26.032 874.752,26.437333 874.752,26.864 C874.752,28.058667 873.909333,29.872 872.224,32.304 C870.538667,34.736 868.853333,37.050667 867.168,39.248 C865.482667,41.445333 864.64,42.885333 864.64,43.568 C864.64,43.952 865.088,44.453333 865.984,45.072 C866.88,45.690667 867.584,46 868.096,46 C868.650667,46 869.013333,45.829333 869.184,45.488 C869.696,44.293333 870.528,42.608 871.68,40.432 C873.642667,37.274667 876.650667,33.925333 880.704,30.384 C884.757333,26.842667 887.744,25.072 889.664,25.072 C890.133333,25.072 890.570667,25.274667 890.976,25.68 C891.381333,26.085333 891.584,26.501333 891.584,26.928 C891.584,28.08 890.784,29.605333 889.184,31.504 C887.584,33.402667 885.984,35.269333 884.384,37.104 C882.784,38.938667 881.984,40.325333 881.984,41.264 C881.984,42.330667 882.4,43.386667 883.232,44.432 C884.064,45.477333 884.970667,46 885.952,46 C889.621333,46 893.621333,44.773333 897.952,42.32 C902.282667,39.866667 905.514667,37.338667 907.648,34.736 L906.752,33.84 C905.002667,35.674667 902.325333,37.584 898.72,39.568 C895.114667,41.552 892.138667,42.544 889.792,42.544 C889.365333,42.544 888.992,42.341333 888.672,41.936 C888.352,41.530667 888.192,41.114667 888.192,40.688 C888.192,39.962667 888.725333,38.917333 889.792,37.552 C890.858667,36.186667 892.021333,34.874667 893.28,33.616 C894.538667,32.357333 895.701333,31.024 896.768,29.616 C897.834667,28.208 898.368,27.098667 898.368,26.288 C898.368,25.178667 897.781333,24.016 896.608,22.8 C895.434667,21.584 894.016,20.976 892.352,20.976 C889.664,20.976 885.077333,24.069333 878.592,30.256 L878.336,30.064 C879.872,27.802667 880.64,26.309333 880.64,25.584 C880.64,24.56 880.106667,23.536 879.04,22.512 C877.973333,21.488 876.757333,20.976 875.392,20.976 C873.856,20.976 871.616,21.957333 868.672,23.92 C865.728,25.882667 863.189333,27.952 861.056,30.128 L860.672,29.808 C863.146667,26.736 864.384,24.794667 864.384,23.984 C864.384,23.344 864.064,22.682667 863.424,22 C862.784,21.317333 862.144,20.976 861.504,20.976 C861.077333,20.976 859.274667,21.136 856.096,21.456 C852.917333,21.776 851.114667,21.957333 850.688,22 L850.688,23.152 Z M902.08,38.896 C902.08,40.858667 902.901333,42.608 904.544,44.144 C906.186667,45.68 907.776,46.448 909.312,46.448 C911.488,46.448 914.261333,45.637333 917.632,44.016 C921.002667,42.394667 923.669333,40.709333 925.632,38.96 L924.928,38 C919.893333,41.242667 915.904,42.864 912.96,42.864 C911.68,42.864 910.581333,42.341333 909.664,41.296 C908.746667,40.250667 908.288,39.045333 908.288,37.68 C908.288,36.528 908.864,35.013333 910.016,33.136 C910.997333,33.221333 912.576,33.264 914.752,33.264 C917.013333,33.264 919.296,32.944 921.6,32.304 C923.904,31.664 925.877333,30.736 927.52,29.52 C929.162667,28.304 929.984,26.949333 929.984,25.456 C929.984,24.389333 929.258667,23.301333 927.808,22.192 C926.357333,21.082667 924.842667,20.528 923.264,20.528 C921.429333,20.528 918.805333,21.68 915.392,23.984 C911.978667,26.288 908.906667,28.933333 906.176,31.92 C903.445333,34.906667 902.08,37.232 902.08,38.896 L902.08,38.896 Z M921.408,22.896 C922.005333,22.896 922.538667,23.173333 923.008,23.728 C923.477333,24.282667 923.712,24.858667 923.712,25.456 C923.712,27.034667 922.432,28.453333 919.872,29.712 C917.312,30.970667 914.304,31.664 910.848,31.792 C912.426667,29.488 914.229333,27.429333 916.256,25.616 C918.282667,23.802667 920,22.896 921.408,22.896 L921.408,22.896 Z M946.496,32.944 C947.690667,30.853333 949.28,28.858667 951.264,26.96 C953.248,25.061333 955.2,23.450667 957.12,22.128 C959.04,20.805333 960.885333,19.546667 962.656,18.352 C964.426667,17.157333 965.856,15.952 966.944,14.736 C968.032,13.52 968.576,12.314667 968.576,11.12 C968.576,8.77333301 967.562667,6.53333301 965.536,4.4 C963.509333,2.26666699 961.109333,1.2 958.336,1.2 C956.544,1.2 954.24,2.032 951.424,3.696 C948.608,5.36 946.474667,7.152 945.024,9.072 L946.048,10.032 C947.712,8.368 949.664,6.992 951.904,5.904 C954.144,4.816 956.053333,4.272 957.632,4.272 C960.661333,4.272 962.176,6.064 962.176,9.648 C962.176,11.312 961.493333,13.061333 960.128,14.896 C958.762667,16.730667 957.194667,18.394667 955.424,19.888 C953.653333,21.381333 951.754667,23.258667 949.728,25.52 C947.701333,27.781333 946.197333,30 945.216,32.176 L946.496,32.944 Z M938.368,43.632 C938.368,44.314667 938.709333,44.965333 939.392,45.584 C940.074667,46.202667 940.736,46.512 941.376,46.512 C942.314667,46.512 943.178667,46.138667 943.968,45.392 C944.757333,44.645333 945.152,43.845333 945.152,42.992 C945.152,42.352 944.810667,41.690667 944.128,41.008 C943.445333,40.325333 942.741333,39.984 942.016,39.984 C941.162667,39.984 940.341333,40.368 939.552,41.136 C938.762667,41.904 938.368,42.736 938.368,43.632 L938.368,43.632 Z" id="—-Где-покататься-в-С" fill="#FFFFFF" sketch:type="MSShapeGroup"></path>
    </g>
</svg>